<?xml version="1.0" encoding="UTF-8"?><svg id="Ebene_1" xmlns="http://www.w3.org/2000/svg" xmlns:xlink="http://www.w3.org/1999/xlink" viewBox="0 0 446.32 270.55"><defs><style>.cls-1{fill:none;}.cls-2{clip-path:url(#clippath);}.cls-3,.cls-4{fill:#17233d;}.cls-4{fill-rule:evenodd;}</style><clipPath id="clippath"><rect class="cls-1" x="293.97" y="88.56" width="84.44" height="84.44"/></clipPath></defs><g class="cls-2"><g><path class="cls-3" d="M311.7,115.58c-9.75,0-17.73,7.96-17.73,17.68,0,3.77,1.2,7.27,3.24,10.14l12.33,21.32c1.73,2.26,2.88,1.83,4.31-.12l13.6-23.14c.27-.5,.49-1.03,.68-1.57,.86-2.1,1.31-4.35,1.31-6.63,0-9.72-7.98-17.68-17.73-17.68Zm0,8.29c5.25,0,9.42,4.16,9.42,9.4s-4.17,9.4-9.42,9.4-9.42-4.16-9.42-9.4,4.18-9.4,9.42-9.4h0Zm56.36-35.31c-5.68,0-10.34,4.64-10.34,10.31,0,2.2,.7,4.24,1.89,5.92l7.19,12.43c1.01,1.32,1.68,1.07,2.51-.07l7.93-13.5c.16-.29,.29-.6,.4-.91,.5-1.23,.76-2.54,.76-3.87,0-5.67-4.66-10.31-10.34-10.31Zm0,4.83c3.06,0,5.5,2.43,5.5,5.48s-2.44,5.48-5.5,5.48-5.5-2.43-5.5-5.48,2.44-5.48,5.5-5.48h0Z"/><path class="cls-4" d="M368.45,120.15c-1.9,.04-3.8,.12-5.71,.26l.29,4.67c1.83-.13,3.66-.22,5.5-.26l-.09-4.68Zm-10.11,.69c-2.93,.36-5.89,.88-8.81,1.72l1.1,4.53c2.65-.76,5.41-1.25,8.2-1.59l-.49-4.65Zm-13.18,3.28c-.88,.39-1.72,.83-2.54,1.34h0s0,0,0,0c-1.16,.73-2.38,1.66-3.38,3.01-.72,.98-1.32,2.21-1.45,3.67l4.3,.48c.03-.34,.21-.8,.52-1.22h0c.51-.69,1.27-1.32,2.18-1.89h0c.65-.4,1.32-.76,2.02-1.06l-1.64-4.33Zm-2.21,10.58l-2.79,3.58c.66,.6,1.35,1.07,2.02,1.46h0s0,0,0,0c2.22,1.26,4.51,1.98,6.64,2.65l1.22-4.49c-2.12-.68-4.13-1.33-5.84-2.31-.49-.29-.92-.58-1.27-.9h0Zm11.26,4.47l-1.19,4.5,.56,.18,.69,.22c2.29,.75,4.49,1.54,6.45,2.64l1.99-4.15c-2.37-1.33-4.84-2.2-7.21-2.98h0s-.71-.23-.71-.23l-.58-.18Zm12.55,6.5l-3.06,3.31c.72,.78,1.26,1.72,1.53,2.7h0s0,.01,0,.01c.31,1.14,.31,2.47,.07,3.82l4.24,.91c.35-1.9,.4-4-.17-6.06-.5-1.83-1.44-3.41-2.62-4.68h0Zm-2.94,12.66c-.47,.49-.98,.94-1.54,1.33h0c-1.52,1.07-3.28,1.87-5.16,2.57l1.4,4.43c2.05-.76,4.15-1.69,6.12-3.07h0s0,0,0,0c.81-.57,1.55-1.21,2.23-1.93l-3.05-3.32Zm-10.67,5.14c-2.71,.73-5.49,1.29-8.29,1.76l.66,4.63c2.89-.49,5.79-1.07,8.67-1.84l-1.04-4.54Zm-12.52,2.39c-2.83,.39-5.67,.7-8.51,.97l.37,4.66c2.89-.27,5.79-.59,8.68-.99l-.54-4.64Zm-12.8,1.34c-2.85,.23-5.72,.41-8.58,.57l.22,4.67c2.89-.16,5.79-.34,8.68-.57l-.32-4.67Zm-12.88,.78c-1.72,.08-3.44,.15-5.16,.21l.14,4.68c1.74-.06,3.47-.13,5.21-.21l-.19-4.68Z"/></g></g><path class="cls-3" d="M92.09,119.19h7.07c-.1-3.09-.71-5.74-1.81-7.94-1.05-2.25-2.51-4.11-4.4-5.58-1.83-1.47-3.98-2.54-6.44-3.22-2.46-.68-5.13-1.02-8.02-1.02-2.57,0-5.08,.34-7.54,1.02-2.41,.63-4.58,1.62-6.52,2.99-1.89,1.31-3.41,3.01-4.56,5.11-1.15,2.04-1.73,4.48-1.73,7.31,0,2.57,.5,4.71,1.49,6.44,1.05,1.68,2.41,3.06,4.09,4.16,1.73,1.05,3.67,1.91,5.81,2.59,2.15,.63,4.32,1.2,6.52,1.73,2.25,.47,4.45,.94,6.6,1.41,2.15,.47,4.06,1.1,5.74,1.89,1.73,.73,3.09,1.7,4.09,2.91,1.05,1.2,1.57,2.78,1.57,4.71,0,2.04-.42,3.72-1.26,5.03-.84,1.31-1.94,2.36-3.3,3.14-1.36,.73-2.91,1.26-4.64,1.57-1.68,.31-3.35,.47-5.03,.47-2.1,0-4.14-.26-6.13-.79-1.99-.52-3.75-1.34-5.26-2.44-1.47-1.1-2.67-2.49-3.61-4.16-.89-1.73-1.34-3.77-1.34-6.13h-7.07c0,3.41,.6,6.36,1.81,8.88,1.26,2.46,2.93,4.51,5.03,6.13,2.15,1.57,4.61,2.75,7.39,3.54,2.83,.79,5.81,1.18,8.96,1.18,2.57,0,5.13-.31,7.7-.94,2.62-.58,4.98-1.52,7.07-2.83,2.1-1.36,3.8-3.09,5.11-5.19,1.36-2.15,2.04-4.71,2.04-7.7,0-2.78-.52-5.08-1.57-6.91-1-1.83-2.36-3.35-4.09-4.56-1.68-1.2-3.59-2.15-5.74-2.83-2.15-.73-4.35-1.36-6.6-1.89-2.2-.52-4.37-1-6.52-1.41-2.15-.47-4.09-1.05-5.81-1.73-1.68-.68-3.04-1.55-4.09-2.59-1-1.1-1.49-2.51-1.49-4.24,0-1.83,.34-3.35,1.02-4.56,.73-1.26,1.68-2.25,2.83-2.99,1.2-.73,2.57-1.26,4.09-1.57,1.52-.31,3.06-.47,4.64-.47,3.88,0,7.05,.92,9.51,2.75,2.51,1.78,3.98,4.69,4.4,8.72Zm17.64-.94v56.11h6.68v-20.9h.16c.73,1.2,1.62,2.23,2.67,3.06,1.1,.79,2.25,1.41,3.46,1.89,1.2,.47,2.41,.81,3.61,1.02,1.26,.21,2.38,.31,3.38,.31,3.09,0,5.79-.55,8.09-1.65,2.36-1.1,4.3-2.59,5.81-4.48,1.57-1.94,2.72-4.19,3.46-6.76,.79-2.57,1.18-5.29,1.18-8.17s-.39-5.61-1.18-8.17-1.96-4.82-3.54-6.76c-1.52-1.99-3.46-3.56-5.81-4.71-2.3-1.15-5.03-1.73-8.17-1.73-2.83,0-5.42,.52-7.78,1.57-2.36,1-4.09,2.62-5.19,4.87h-.16v-5.5h-6.68Zm31.43,19.96c0,1.99-.21,3.93-.63,5.81-.42,1.89-1.1,3.56-2.04,5.03s-2.2,2.65-3.77,3.54c-1.52,.89-3.43,1.34-5.74,1.34s-4.27-.42-5.89-1.26c-1.62-.89-2.96-2.04-4.01-3.46-1-1.41-1.73-3.04-2.2-4.87-.47-1.89-.71-3.82-.71-5.81,0-1.89,.21-3.75,.63-5.58,.47-1.83,1.2-3.46,2.2-4.87,1-1.47,2.28-2.65,3.85-3.54,1.57-.89,3.48-1.34,5.74-1.34s4.01,.42,5.58,1.26c1.62,.84,2.93,1.96,3.93,3.38,1.05,1.41,1.81,3.04,2.28,4.87,.52,1.78,.79,3.61,.79,5.5Zm14.68-19.96v40.63h6.68v-18.07c0-2.62,.26-4.92,.79-6.91,.52-2.04,1.36-3.77,2.51-5.19,1.15-1.41,2.67-2.49,4.56-3.22s4.16-1.1,6.84-1.1v-7.07c-3.61-.1-6.6,.63-8.96,2.2-2.36,1.57-4.35,4.01-5.97,7.31h-.16v-8.57h-6.29Zm33.48-7.31v-8.17h-6.68v8.17h6.68Zm-6.68,7.31v40.63h6.68v-40.63h-6.68Zm26.3,0v-12.18h-6.68v12.18h-6.92v5.89h6.92v25.85c0,1.89,.18,3.41,.55,4.56,.37,1.15,.92,2.04,1.65,2.67,.79,.63,1.78,1.07,2.99,1.34,1.26,.21,2.75,.31,4.48,.31h5.11v-5.89h-3.06c-1.05,0-1.91-.03-2.59-.08-.63-.1-1.13-.29-1.49-.55-.37-.26-.63-.63-.79-1.1-.11-.47-.16-1.1-.16-1.89v-25.22h8.09v-5.89h-8.09Zm24.79,0v-12.18h-6.68v12.18h-6.91v5.89h6.91v25.85c0,1.89,.18,3.41,.55,4.56,.37,1.15,.92,2.04,1.65,2.67,.79,.63,1.78,1.07,2.99,1.34,1.26,.21,2.75,.31,4.48,.31h5.11v-5.89h-3.06c-1.05,0-1.91-.03-2.59-.08-.63-.1-1.13-.29-1.49-.55-.37-.26-.63-.63-.79-1.1-.1-.47-.16-1.1-.16-1.89v-25.22h8.09v-5.89h-8.09Zm31.47,46.05c-.79,1.99-1.57,3.67-2.36,5.03-.73,1.36-1.57,2.46-2.51,3.3-.89,.89-1.91,1.52-3.06,1.89-1.1,.42-2.38,.63-3.85,.63-.79,0-1.57-.05-2.36-.16-.79-.1-1.55-.29-2.28-.55v-6.13c.58,.26,1.23,.47,1.96,.63,.79,.21,1.44,.31,1.96,.31,1.36,0,2.49-.34,3.38-1.02,.94-.63,1.65-1.55,2.12-2.75l2.75-6.84-16.11-40.39h7.54l11.87,33.24h.16l11.39-33.24h7.07l-17.68,46.05Z"/></svg>